HIERARCHY
ROOT Hips
{
	OFFSET 0.000000 0.000000 0.000000
	CHANNELS 6 Xposition Yposition Zposition Xrotation Yrotation Zrotation
	JOINT LeftUpLeg_virtual
	{
		OFFSET 0.000000 0.000000 0.000000
		CHANNELS 3 Xrotation Yrotation Zrotation
		JOINT LeftUpLeg
		{
			OFFSET 11.394100 -6.187798 -0.413800
			CHANNELS 3 Xrotation Yrotation Zrotation
			JOINT LeftLeg
			{
				OFFSET 0.430247 -32.302673 3.732800
				CHANNELS 3 Xrotation Yrotation Zrotation
				JOINT LeftFoot
				{
					OFFSET -0.430247 -48.264931 -6.423300
					CHANNELS 3 Xrotation Yrotation Zrotation
					JOINT LeftToeBase
					{
						OFFSET 4.230900 -16.068199 23.438400
						CHANNELS 3 Xrotation Yrotation Zrotation
						JOINT LeftToe_End
						{
							OFFSET 4.510700 0.695400 19.974600
							CHANNELS 3 Xrotation Yrotation Zrotation
							End Site
							{
								OFFSET 0 0 0
							}
						}
					}
				}
			}
		}
	}
	JOINT RightUpLeg_virtual
	{
		OFFSET 0.000000 0.000000 0.000000
		CHANNELS 3 Xrotation Yrotation Zrotation
		JOINT RightUpLeg
		{
			OFFSET -11.333700 -6.187798 -0.413800
			CHANNELS 3 Xrotation Yrotation Zrotation
			JOINT RightLeg
			{
				OFFSET -0.430392 -32.302628 3.733000
				CHANNELS 3 Xrotation Yrotation Zrotation
				JOINT RightFoot
				{
					OFFSET 0.430392 -48.264973 -6.423500
					CHANNELS 3 Xrotation Yrotation Zrotation
					JOINT RightToeBase
					{
						OFFSET -4.230900 -16.068199 23.438400
						CHANNELS 3 Xrotation Yrotation Zrotation
						JOINT RightToe_End
						{
							OFFSET -4.510700 0.695400 19.974600
							CHANNELS 3 Xrotation Yrotation Zrotation
							End Site
							{
								OFFSET 0 0 0
							}
						}
					}
				}
			}
		}
	}
	JOINT Spine_virtual
	{
		OFFSET 0.000000 0.000000 0.000000
		CHANNELS 3 Xrotation Yrotation Zrotation
		JOINT Spine
		{
			OFFSET -0.002400 12.777504 0.315300
			CHANNELS 3 Xrotation Yrotation Zrotation
			JOINT Spine1
			{
				OFFSET -0.002067 5.816869 0.032633
				CHANNELS 3 Xrotation Yrotation Zrotation
				JOINT Spine1_split
				{
					OFFSET -0.002067 5.816869 0.032633
					CHANNELS 3 Xrotation Yrotation Zrotation
					JOINT Spine2
					{
						OFFSET -0.002067 5.816869 0.032633
						CHANNELS 3 Xrotation Yrotation Zrotation
						JOINT Neck_virtual
						{
							OFFSET 0.000000 0.000000 0.000000
							CHANNELS 3 Xrotation Yrotation Zrotation
							JOINT Neck
							{
								OFFSET -0.003700 21.199493 -0.826900
								CHANNELS 3 Xrotation Yrotation Zrotation
								JOINT Head
								{
									OFFSET 0.000000 20.442200 4.834800
									CHANNELS 3 Xrotation Yrotation Zrotation
									JOINT HeadTop_End
									{
										OFFSET 0.000000 34.668396 4.968400
										CHANNELS 3 Xrotation Yrotation Zrotation
										End Site
										{
											OFFSET 0 0 0
										}
									}
								}
							}
						}
						JOINT LeftShoulder_virtual
						{
							OFFSET 0.000000 0.000000 0.000000
							CHANNELS 3 Xrotation Yrotation Zrotation
							JOINT LeftShoulder
							{
								OFFSET 3.288150 8.794197 -1.372250
								CHANNELS 3 Xrotation Yrotation Zrotation
								JOINT LeftShoulder_split
								{
									OFFSET 3.288150 8.794197 -1.372250
									CHANNELS 3 Xrotation Yrotation Zrotation
									JOINT LeftArm
									{
										OFFSET 11.953299 -2.279007 -0.146200
										CHANNELS 3 Xrotation Yrotation Zrotation
										JOINT LeftForeArm
										{
											OFFSET 18.448900 0.000000 0.000000
											CHANNELS 3 Xrotation Yrotation Zrotation
											JOINT LeftHand
											{
												OFFSET 29.527798 0.000000 0.000000
												CHANNELS 3 Xrotation Yrotation Zrotation
												End Site
												{
													OFFSET 0 0 0
												}
											}
										}
									}
								}
							}
						}
						JOINT RightShoulder_virtual
						{
							OFFSET 0.000000 0.000000 0.000000
							CHANNELS 3 Xrotation Yrotation Zrotation
							JOINT RightShoulder
							{
								OFFSET -3.249400 8.794197 -1.372250
								CHANNELS 3 Xrotation Yrotation Zrotation
								JOINT RightShoulder_split
								{
									OFFSET -3.249400 8.794197 -1.372250
									CHANNELS 3 Xrotation Yrotation Zrotation
									JOINT RightArm
									{
										OFFSET -11.953299 -2.279007 -0.146200
										CHANNELS 3 Xrotation Yrotation Zrotation
										JOINT RightForeArm
										{
											OFFSET -18.448900 0.000000 0.000000
											CHANNELS 3 Xrotation Yrotation Zrotation
											JOINT RightHand
											{
												OFFSET -29.527802 0.000000 0.000000
												CHANNELS 3 Xrotation Yrotation Zrotation
												End Site
												{
													OFFSET 0 0 0
												}
											}
										}
									}
								}
							}
						}
					}
				}
			}
		}
	}
}
MOTION
Frames: 4
Frame Time: 0.03333333
3.572151 87.388893 -13.412807 0.000000 0.000000 0.000000 45.244000 7.298108 -5.795007 -98.266642 4.597084 21.158289 44.349053 10.603689 -3.692334 11.345975 14.134749 -7.566551 -0.406738 1.179451 -1.717373 0.000000 0.000000 0.000000 45.718923 6.887939 -4.226512 -49.222742 7.396988 -9.153651 66.996629 1.336635 -4.465124 7.169804 -1.540967 9.521770 -14.130283 1.795090 5.833414 0.000000 0.000000 0.000000 48.841143 -0.455306 -0.922347 12.655605 0.253870 -2.071167 11.511218 1.705113 -0.750518 -0.029697 2.321892 1.046575 0.000000 0.000000 0.000000 26.927053 1.220243 -0.743450 -23.042695 -4.921257 5.919153 -17.901470 5.051138 -7.159714 0.000000 0.000000 0.000000 25.637434 2.363614 -0.394905 4.025435 -2.902654 7.459369 7.495272 -19.968557 -5.016053 -34.201575 -45.554012 -33.347258 2.255591 -46.537265 3.460692 0.000000 0.000000 0.000000 24.849849 0.994887 -0.092916 -2.317739 33.883441 11.695785 6.631381 9.536261 3.729249 -51.190714 22.221300 26.632902 2.652206 38.450447 -4.085867 0.000000 0.000000 0.000000 
3.356071 89.024117 -11.936554 0.000000 0.000000 0.000000 41.134852 4.684434 -4.285481 -91.756481 5.527160 19.914701 41.433539 10.864924 -3.414096 10.647622 15.169843 -8.257310 -0.324611 1.307131 -2.209395 0.000000 0.000000 0.000000 41.544339 3.992938 -2.616828 -53.943458 8.568862 -8.383040 70.837292 1.147744 -4.306385 3.702747 -1.697585 8.320757 -9.671857 2.472930 2.089479 0.000000 0.000000 0.000000 44.552880 -2.437733 -0.260211 13.117767 0.327834 -2.161847 11.585891 1.718180 -0.546918 -0.068102 2.193491 1.062211 0.000000 0.000000 0.000000 26.888599 1.196468 -0.540024 -22.558491 -4.696670 5.962987 -17.069532 5.863618 -6.556187 0.000000 0.000000 0.000000 25.457295 2.297245 -0.200750 3.981903 -2.259138 6.015191 6.189242 -20.200759 -4.711423 -32.698516 -44.318444 -34.849527 1.916217 -46.135735 2.980743 0.000000 0.000000 0.000000 24.684340 0.978147 0.033547 -2.417165 32.920392 12.270752 7.226501 9.352973 4.459259 -49.495987 22.037240 29.450331 2.816261 37.103380 -4.692271 0.000000 0.000000 0.000000 
3.096353 90.473267 -10.395378 0.000000 0.000000 0.000000 37.205591 2.172722 -2.970307 -85.340632 6.279733 18.778161 38.795454 10.926897 -3.090685 9.673881 15.593110 -8.815682 -0.777725 1.373931 -2.413139 0.000000 0.000000 0.000000 37.495973 1.005151 -1.098333 -57.507392 9.724827 -7.739024 71.689044 1.214054 -4.376273 1.938717 -1.203537 7.837201 -8.604381 2.329499 0.119805 0.000000 0.000000 0.000000 40.506601 -4.258133 0.326644 13.396215 0.342658 -2.292816 11.608779 1.779662 -0.344325 -0.146049 2.006539 1.159044 0.000000 0.000000 0.000000 26.774837 1.233673 -0.382888 -21.977481 -4.476640 5.890202 -16.305815 6.543254 -6.061174 0.000000 0.000000 0.000000 25.209315 2.302051 -0.011043 3.919580 -1.676218 4.493745 4.844717 -20.041389 -4.527529 -31.266984 -42.943476 -36.555097 1.474058 -44.932198 2.419970 0.000000 0.000000 0.000000 24.448377 1.032872 0.141500 -2.390308 31.830177 12.573215 7.875159 9.015409 5.032323 -47.849092 21.624691 31.859831 2.816365 35.487392 -5.154769 0.000000 0.000000 0.000000 
2.791629 91.767708 -8.846962 0.000000 0.000000 0.000000 33.593882 -0.032117 -2.044740 -79.255370 6.993794 18.065744 36.517285 10.900321 -2.839846 8.703090 15.577544 -9.088155 -0.740988 1.377127 -2.440155 0.000000 0.000000 0.000000 33.608257 -1.665537 -0.001525 -59.583360 10.635249 -7.367747 69.357327 1.248905 -4.431933 1.111834 -0.485454 7.316749 -8.694295 1.711018 -0.045354 0.000000 0.000000 0.000000 36.783827 -5.921236 0.746028 13.511243 0.310954 -2.422018 11.580364 1.883824 -0.132129 -0.208578 1.877676 1.274007 0.000000 0.000000 0.000000 26.571762 1.319271 -0.243011 -21.336599 -4.250377 5.718695 -15.509992 7.133969 -5.699167 0.000000 0.000000 0.000000 24.879587 2.362929 0.190536 3.850918 -1.191019 3.020905 3.808350 -19.664741 -4.396743 -29.901694 -41.571789 -38.363701 1.091621 -43.242232 1.915151 0.000000 0.000000 0.000000 24.144242 1.148934 0.255975 -2.249095 30.642035 12.636839 8.482940 8.478813 5.658474 -46.116054 20.892137 33.706188 2.679464 33.916486 -5.491234 0.000000 0.000000 0.000000 
